<svg xmlns="http://www.w3.org/2000/svg" width="1200" height="630" viewBox="0 0 1200 630"><defs><linearGradient id="bg" x1="0" y1="0" x2="1" y2="1"><stop stop-color="#063b3a"/><stop offset=".55" stop-color="#0b6b5e"/><stop offset="1" stop-color="#f6b63c"/></linearGradient><linearGradient id="sky" x1="0" y1="0" x2="0" y2="1"><stop stop-color="#0b5660" stop-opacity=".9"/><stop offset="1" stop-color="#f4b64c" stop-opacity=".35"/></linearGradient><filter id="shadow"><feDropShadow dx="0" dy="10" stdDeviation="12" flood-opacity=".28"/></filter></defs><rect width="1200" height="630" rx="28" fill="url(#bg)"/><rect width="1200" height="630" rx="28" fill="url(#sky)"/><path d="M0 410 Q170 310 330 405 T650 380 T930 390 T1200 350 V630 H0Z" fill="#07524b" opacity=".9"/><path d="M0 500 Q180 425 350 500 T680 480 T1000 485 T1200 450 V630 H0Z" fill="#073e3b"/><path d="M0 545 Q170 515 340 545 T680 535 T1000 545 T1200 520 V630 H0Z" fill="#0c6a5e"/><circle cx="1040" cy="120" r="58" fill="#ffd36b" opacity=".95"/><circle cx="1040" cy="120" r="95" fill="#ffd36b" opacity=".13"/><g filter="url(#shadow)"><rect x="58" y="54" width="330" height="82" rx="22" fill="#063b3a" opacity=".92"/><rect x="76" y="70" width="50" height="50" rx="15" fill="#ffb703"/><path d="M101 80c-10 0-17 8-17 17 0 11 17 29 17 29s17-18 17-29c0-9-7-17-17-17z" fill="#0b3d3a"/><circle cx="101" cy="97" r="5" fill="#ffb703"/><text x="145" y="105" font-family="Arial,sans-serif" font-size="42" font-weight="800" fill="#fff">BD<tspan fill="#ffb703">Trip</tspan></text></g><text x="64" y="220" font-family="Noto Sans Bengali,Hind Siliguri,Arial,sans-serif" font-size="66" font-weight="800" fill="#fff">বাংলাদেশের ৬৪ জেলা,</text><text x="64" y="292" font-family="Noto Sans Bengali,Hind Siliguri,Arial,sans-serif" font-size="66" font-weight="800" fill="#ffcf4d">এক ম্যাপে!</text><text x="67" y="337" font-family="Noto Sans Bengali,Hind Siliguri,Arial,sans-serif" font-size="25" fill="#f5fff9">ঘুরুন • পরিকল্পনা করুন • চিহ্নিত করুন • শেয়ার করুন</text><g font-family="Noto Sans Bengali,Hind Siliguri,Arial,sans-serif" font-size="20" font-weight="700"><rect x="62" y="374" width="140" height="52" rx="26" fill="#073f3b" stroke="#ffcf4d" stroke-width="2"/><text x="91" y="407" fill="#fff">৬৪ জেলা</text><rect x="216" y="374" width="140" height="52" rx="26" fill="#073f3b" stroke="#ffcf4d" stroke-width="2"/><text x="246" y="407" fill="#fff">৮ বিভাগ</text><rect x="370" y="374" width="180" height="52" rx="26" fill="#073f3b" stroke="#ffcf4d" stroke-width="2"/><text x="399" y="407" fill="#fff">জেলা গাইড</text></g><g transform="translate(735 195) scale(.78)" filter="url(#shadow)"><path d="M150 10l45 18 26 39 54 13 12 39-30 29 23 48-31 44-11 60-43 36-13 66-38 42-24-32-34-16-12-47-35-28 13-44-27-34 29-38-5-42 31-26 6-49 35-15 5-40z" fill="#0a725d" stroke="#fff" stroke-width="6" stroke-linejoin="round"/><path d="M90 76l64 20 39 54-70 35-43-40m-14 56l67-16 34 50-38 52-48-25m73-18l59 20 31 54-58 35-46-32m55-88l65-21 32 52-41 43-56-31m-80 113l61-28 48 33-25 59-63 4m106-39l54-24 38 38-43 42-55-17" fill="none" stroke="#c8f5df" stroke-width="2.5" opacity=".9"/><g fill="#ffb703" stroke="#063b3a" stroke-width="3"><circle cx="151" cy="72" r="9"/><circle cx="95" cy="155" r="9"/><circle cx="177" cy="177" r="9"/><circle cx="121" cy="248" r="9"/><circle cx="203" cy="270" r="9"/><circle cx="103" cy="326" r="9"/></g></g><text x="745" y="555" font-family="Arial,sans-serif" font-size="28" font-weight="800" fill="#fff">TRAVEL • EXPLORE • DISCOVER</text><text x="745" y="588" font-family="Noto Sans Bengali,Hind Siliguri,Arial,sans-serif" font-size="20" fill="#e9fff7">Bangladesh Travel Map &amp; Trip Planner</text></svg>